<svg id="Capa_1" enable-background="new 0 0 512 512" fill="#f15930" height="512" viewBox="0 0 512 512" width="512" xmlns="http://www.w3.org/2000/svg"><g><path d="m502 41.009h-335.407c-5.523 0-10 4.477-10 10v206.233c0 5.523 4.477 10 10 10h335.407c5.522 0 10-4.477 10-10v-206.233c0-5.523-4.478-10-10-10zm-10 206.233h-315.407v-186.233h315.407z"/><path d="m215.231 186.01c12.618 0 14.956 3.512 15.837 4.834 3.04 4.567 3.45 14.082 3.45 22.786 0 5.523 4.477 10 10 10h179.555c5.522 0 10-4.477 10-10 0-8.704.41-18.218 3.451-22.786.88-1.322 3.219-4.835 15.837-4.835 5.522 0 10-4.477 10-10v-43.769c0-5.523-4.478-10-10-10-12.618 0-14.957-3.513-15.837-4.835-3.041-4.567-3.451-14.081-3.451-22.785 0-5.523-4.478-10-10-10h-179.554c-5.523 0-10 4.477-10 10 0 8.704-.41 18.218-3.45 22.786-.881 1.322-3.219 4.835-15.837 4.835-5.522 0-10 4.477-10 10v43.769c-.001 5.523 4.477 10 9.999 10zm10-44.427c8.112-1.21 16.768-4.506 22.484-13.093 4.248-6.379 5.954-14.294 6.539-23.869h160.082c.585 9.574 2.292 17.489 6.539 23.869 5.718 8.587 14.373 11.883 22.485 13.093v25.085c-8.112 1.21-16.768 4.506-22.485 13.093-4.247 6.38-5.954 14.296-6.539 23.87h-160.081c-.585-9.574-2.291-17.489-6.539-23.869-5.717-8.587-14.372-11.883-22.484-13.093v-25.086z"/><path d="m496.109 309.159c-15.976-11.228-37.541-9.28-51.278 4.635-.44.446-.838.932-1.187 1.453l-21.938 32.685c-6.142-14.497-20.412-24.681-36.991-24.681l-157.832-.106h-.007c-2.394 0-4.707.858-6.521 2.419l-39.54 34.017h-28.855v-8.789c0-5.523-4.478-10-10-10h-44.03v-1.368c0-5.523-4.478-10-10-10h-77.93c-5.523 0-10 4.477-10 10v117.278c0 5.523 4.477 10 10 10h77.93c5.522 0 10-4.477 10-10v-1.368h44.029c5.522 0 10-4.477 10-10v-9.234h33.157l29.954 31.753c1.891 2.004 4.523 3.138 7.274 3.138.047 0 .094-.001.141-.001l206.514-2.897c3.222-.045 6.225-1.64 8.066-4.284l65.616-94.224c.041-.059.082-.119.121-.178 6.354-9.556 9.605-20.515 9.157-30.858-.526-12.14-6.155-22.577-15.85-29.39zm-418.179 137.543h-57.93v-97.278h57.93zm54.029-11.369h-34.029v-74.543h34.029zm354.245-77.085-62.618 89.92-196.984 2.763-29.896-31.692c-1.89-2.003-4.521-3.138-7.274-3.138h-37.472v-36.52h32.565c2.394 0 4.707-.858 6.521-2.419l39.537-34.014 154.125.103c11.147 0 20.216 9.236 20.216 20.589 0 11.352-9.068 20.587-20.216 20.587-.013 0-.026 0-.039 0h-86.28c-2.745 0-5.368 1.128-7.257 3.12l-21.038 22.19c-3.8 4.008-3.631 10.337.377 14.137 1.934 1.833 4.408 2.743 6.878 2.743 2.649 0 5.293-1.046 7.259-3.12l18.08-19.071 99.847.005h.003c3.332 0 6.446-1.66 8.303-4.427l48.832-72.752c6.864-6.397 17.215-7.159 24.935-1.732 10.422 7.326 8.694 21.989 1.596 32.728z"/></g></svg>