<?xml version="1.0" encoding="utf-8"?>
<!-- Generator: Adobe Illustrator 25.4.1, SVG Export Plug-In . SVG Version: 6.00 Build 0)  -->
<svg version="1.0" id="Layer_1" xmlns="http://www.w3.org/2000/svg" xmlns:xlink="http://www.w3.org/1999/xlink" x="0px" y="0px"
	 viewBox="0 0 64 64" style="enable-background:new 0 0 64 64;" xml:space="preserve">
<style type="text/css">
	.st0{fill:none;stroke:#4ECECC;stroke-width:2;stroke-linecap:round;stroke-linejoin:round;stroke-miterlimit:10;}
</style>
<g>
	<g>
		<path class="st0" d="M19.82,28.79c2.9-3.5,7.27-5.73,12.17-5.73l0,0c4.68,0,8.89,2.04,11.78,5.28"/>
		<ellipse transform="matrix(0.1597 -0.9872 0.9872 0.1597 13.099 43.3111)" class="st0" cx="31.99" cy="13.96" rx="9.1" ry="9.1"/>
	</g>
	<g>
		<path class="st0" d="M38.52,48.26l4.56,2.88c0.49,0.4,2.37,0.98,3.29-0.18c1.08-1.17,0.8-2.43-0.1-3.16l-9.56-6.05
			c-3.69,2.49-6.85,1.82-8.88,0.78c-1.28-0.65-1.32-2.46-0.09-3.2l8.06-4.81c4.54-2.59,9.3,1.16,9.3,1.16l4.72-2.03l5.47,9.33
			l-9.02,4.82"/>
		<path class="st0" d="M32.74,36.35l-2-1.55c-1.48-1.15-3.25-2-5.56-1.13l-6.65,2.48l-4.35-2.38l-5.72,8.5l6.6,4.45"/>
		<path class="st0" d="M19.05,48.82l-2.11,1.83c-0.81,0.7-2.04,0.61-2.74-0.2l-0.21-0.24c-0.7-0.81-0.61-2.04,0.2-2.74l2.11-1.83
			c0.81-0.7,2.04-0.61,2.74,0.2l0.21,0.24C19.94,46.89,19.86,48.11,19.05,48.82z"/>
		<path class="st0" d="M22.63,51.27l-2.94,2.55c-0.81,0.7-2.04,0.61-2.74-0.2l-0.21-0.24c-0.7-0.81-0.61-2.04,0.2-2.74l2.94-2.55
			c0.81-0.7,2.04-0.61,2.74,0.2l0.21,0.24C23.53,49.34,23.44,50.57,22.63,51.27z"/>
		<path class="st0" d="M25.68,54.19L22.44,57c-0.81,0.7-2.04,0.61-2.74-0.2l-0.21-0.24c-0.7-0.81-0.61-2.04,0.2-2.74l3.24-2.81
			c0.81-0.7,2.04-0.61,2.74,0.2l0.21,0.24C26.58,52.26,26.49,53.49,25.68,54.19z"/>
		<path class="st0" d="M28.64,57.19l-1.55,1.34c-0.81,0.7-2.04,0.61-2.74-0.2l-0.21-0.24c-0.7-0.81-0.61-2.04,0.2-2.74l1.55-1.34
			c0.81-0.7,2.04-0.61,2.74,0.2l0.21,0.24C29.53,55.26,29.45,56.49,28.64,57.19z"/>
		<path class="st0" d="M35.17,51.14l5.11,3.53c0.49,0.4,1.11,0.54,1.68,0.44c0.48-0.08,0.93-0.34,1.26-0.75
			c0.73-0.9,0.74-2.49-0.16-3.22l-4.56-2.88"/>
		<path class="st0" d="M32.57,53.92l4.06,3.15c0.44,0.33,0.98,0.45,1.49,0.36c0.42-0.07,0.82-0.29,1.12-0.64
			c0.65-0.76,0.71-2.39-0.07-3l-4-2.65"/>
		<path class="st0" d="M32.57,53.92l1.66,1.29c1.76,1.36,0.52,3.04,0.52,3.04s-1.21,1.82-3.67,0.25l-2.26-1.5"/>
		<path class="st0" d="M14.18,33.77l0.98-1.38c0.42-0.59,0.25-1.42-0.37-1.8l-2.66-1.62c-0.58-0.35-1.33-0.18-1.7,0.38l-7.47,11.3
			c-0.39,0.59-0.22,1.38,0.38,1.75l2.56,1.62c0.59,0.38,1.38,0.19,1.74-0.41l0.82-1.35"/>
		<path class="st0" d="M49.82,33.65l-0.98-1.38c-0.42-0.59-0.25-1.42,0.37-1.8l2.66-1.62c0.58-0.35,1.33-0.18,1.7,0.38l7.47,12.33
			c0.39,0.59,0.22,1.38-0.38,1.75l-2.56,1.62c-0.59,0.38-1.38,0.19-1.74-0.41l-0.82-1.35"/>
	</g>
</g>
</svg>
