<?xml version="1.0" encoding="utf-8"?>
<!-- Generator: Adobe Illustrator 25.4.1, SVG Export Plug-In . SVG Version: 6.00 Build 0)  -->
<svg version="1.0" id="Layer_1" xmlns="http://www.w3.org/2000/svg" xmlns:xlink="http://www.w3.org/1999/xlink" x="0px" y="0px"
	 viewBox="0 0 64 64" style="enable-background:new 0 0 64 64;" xml:space="preserve">
<style type="text/css">
	.st0{fill:none;stroke:#f15930;stroke-width:2;stroke-linecap:round;stroke-linejoin:round;stroke-miterlimit:10;}
</style>
<g>
	<path class="st0" d="M39.42,33.15l12.15-8.81c0.66-0.47,1.45-0.72,2.26-0.72h1.77c1.32,0,2.4,1.07,2.4,2.4v15.96
		c0,1.48-1.2,2.67-2.67,2.67h-7.14l-2.65,12.63c-0.16,0.68-0.77,1.16-1.47,1.16H42.9c-0.97,0-1.69-0.9-1.47-1.85l2.83-13.9
		c0.34-1.5,1.68-2.57,3.22-2.57h4.37V28.56l-8.41,4.59"/>
	<path class="st0" d="M59.19,16.76c0,2.36-1.91,4.28-4.28,4.28c-2.36,0-4.27-1.91-4.27-4.28s1.91-4.27,4.27-4.27
		C57.28,12.49,59.19,14.4,59.19,16.76z"/>
	<path class="st0" d="M50.38,47.43h7.87c1.52,0,2.75-1.23,2.75-2.75V24.56"/>
	<line class="st0" x1="53.24" y1="47.43" x2="50.38" y2="58.43"/>
	<line class="st0" x1="57.34" y1="47.43" x2="59.95" y2="58.43"/>
	<rect x="18.98" y="33.15" class="st0" width="27.58" height="3.27"/>
	<line class="st0" x1="25.68" y1="58.43" x2="38.17" y2="36.42"/>
	<line class="st0" x1="38.17" y1="58.43" x2="25.68" y2="36.42"/>
	<path class="st0" d="M24.58,33.15l-12.15-8.81c-0.66-0.47-1.45-0.72-2.26-0.72H8.4c-1.32,0-2.4,1.07-2.4,2.4v15.96
		c0,1.48,1.2,2.67,2.67,2.67h7.14l2.65,12.63c0.16,0.68,0.77,1.16,1.47,1.16h1.16c0.97,0,1.69-0.9,1.47-1.85l-2.83-13.9
		c-0.34-1.5-1.68-2.57-3.22-2.57h-4.37V28.56l8.41,4.59"/>
	<path class="st0" d="M4.81,16.76c0,2.36,1.91,4.28,4.28,4.28c2.36,0,4.27-1.91,4.27-4.28s-1.91-4.27-4.27-4.27
		C6.72,12.49,4.81,14.4,4.81,16.76z"/>
	<path class="st0" d="M13.62,47.43H5.74C4.23,47.43,3,46.2,3,44.68V24.56"/>
	<line class="st0" x1="10.76" y1="47.43" x2="13.62" y2="58.43"/>
	<line class="st0" x1="6.66" y1="47.43" x2="4.05" y2="58.43"/>
	<circle class="st0" cx="32" cy="13.3" r="7.74"/>
	<line class="st0" x1="28.38" y1="24.22" x2="35.47" y2="24.22"/>
	<line class="st0" x1="28.38" y1="24.22" x2="35.47" y2="24.22"/>
	<line class="st0" x1="29.27" y1="27.52" x2="34.58" y2="27.52"/>
</g>
</svg>
