<?xml version="1.0" encoding="utf-8"?>
<!-- Generator: Adobe Illustrator 27.9.0, SVG Export Plug-In . SVG Version: 6.00 Build 0)  -->
<svg version="1.1" id="Outline" fill="#f15930" xmlns="http://www.w3.org/2000/svg" xmlns:xlink="http://www.w3.org/1999/xlink" x="0px" y="0px"
	 viewBox="0 0 48 48" enable-background="new 0 0 48 48" xml:space="preserve">
<g>
	<circle cx="10" cy="15" r="1"/>
	<circle cx="14" cy="15" r="1"/>
	<circle cx="18" cy="15" r="1"/>
	<circle cx="30" cy="15" r="1"/>
	<circle cx="34" cy="15" r="1"/>
	<circle cx="38" cy="15" r="1"/>
	<path d="M43,17v-4c0-1.65002-1.34998-3-3-3H28c-1.29999,0-2.40002,0.83997-2.82001,2h-2.35999C22.40002,10.83997,21.29999,10,20,10
		H8c-1.65002,0-3,1.34998-3,3v4c0,1.10999,0.60999,2.06,1.5,2.57996V30H6c-0.54999,0-1,0.45001-1,1v3
		c0,0.26996,0.10999,0.51996,0.28998,0.70996l3,3C8.47998,37.89001,8.72998,38,9,38h30c0.27002,0,0.52002-0.10999,0.71002-0.29004
		l3-3C42.89001,34.51996,43,34.26996,43,34v-3c0-0.54999-0.45001-1-1-1h-0.5V19.57996C42.39001,19.06,43,18.10999,43,17z M7,13
		c0-0.54999,0.45001-1,1-1h12c0.54999,0,1,0.45001,1,1v4c0,0.54999-0.45001,1-1,1h-2.33002c-0.29999,0-0.57996,0.13-0.76996,0.35999
		L16,19.44l-0.90002-1.08002C14.90997,18.13,14.63,18,14.33002,18H8c-0.54999,0-1-0.45001-1-1V13z M17,36H9.40997L7,33.58997V32
		h8.59003L17,33.40997V36z M29,36H19v-2h10V36z M18.40997,32l-1.69995-1.71002C16.52002,30.10999,16.27002,30,16,30H8.5V20h5.37
		l1.35999,1.64001C15.41998,21.87,15.70001,22,16,22s0.58002-0.13,0.77002-0.35999L18.13,20H20c1.65002,0,3-1.35004,3-3v-3h2v3
		c0,1.64996,1.34998,3,3,3h1.87l1.35999,1.64001C31.41998,21.87,31.70001,22,32,22s0.58002-0.13,0.77002-0.35999L34.13,20h5.37v10
		H32c-0.27002,0-0.52002,0.10999-0.71002,0.28998L29.59003,32H18.40997z M41,33.58997L38.59003,36H31v-2.59003L32.40997,32H41
		V33.58997z M41,17c0,0.54999-0.45001,1-1,1h-6.33002c-0.29999,0-0.57996,0.13-0.76996,0.35999L32,19.44l-0.90002-1.08002
		C30.90997,18.13,30.63,18,30.33002,18H28c-0.54999,0-1-0.45001-1-1v-4c0-0.54999,0.45001-1,1-1h12c0.54999,0,1,0.45001,1,1V17z"/>
	<path d="M20.5,25h7c0.37891,0,0.7251-0.21387,0.89453-0.55273s0.13281-0.74414-0.09473-1.04688l-1.5-2
		c-0.33105-0.44141-0.95605-0.53125-1.3999-0.2002c-0.44189,0.33105-0.53125,0.95801-0.19971,1.39941L25.5,23h-5
		c-0.55225,0-1,0.44727-1,1S19.94775,25,20.5,25z"/>
	<path d="M27.5,26.5h-7c-0.37891,0-0.7251,0.21387-0.89453,0.55273s-0.13281,0.74414,0.09473,1.04688c0,0,1.49997,1.99996,1.5,2
		c0.31486,0.41982,0.95361,0.53401,1.3999,0.2002c0.44189-0.33105,0.53125-0.95801,0.19971-1.39941L22.5,28.5h5
		c0.55225,0,1-0.44727,1-1S28.05225,26.5,27.5,26.5z"/>
</g>
</svg>
