<?xml version="1.0" encoding="utf-8"?>
<!-- Generator: Adobe Illustrator 27.9.0, SVG Export Plug-In . SVG Version: 6.00 Build 0)  -->
<svg fill="#8ec63f"  version="1.1" id="Outline" xmlns="http://www.w3.org/2000/svg" xmlns:xlink="http://www.w3.org/1999/xlink" x="0px" y="0px"
	 viewBox="0 0 48 48" enable-background="new 0 0 48 48" xml:space="preserve">
<g>
	<path d="M42,7H6C5.44775,7,5,7.44775,5,8v32c0,0.55225,0.44775,1,1,1h36c0.55225,0,1-0.44775,1-1V8C43,7.44775,42.55225,7,42,7z
		 M41,13H22.72089l-1.33337-4H41V13z M18.72089,13l-1.33337-4h1.8916l1.33337,4H18.72089z M15.27911,9l1.33337,4H7V9H15.27911z
		 M7,39V15h34v24H7z"/>
	<path d="M11.37598,29H14c0.55225,0,1-0.44775,1-1s-0.44775-1-1-1h-1v-1c0-0.55225-0.44775-1-1-1s-1,0.44775-1,1v1.03802
		c-1.13092,0.1817-2,1.15662-2,2.33795c0,1.05713,0.68018,1.97217,1.69336,2.27637l2.03857,0.61084
		C12.89209,32.31152,13,32.45654,13,32.62402C13,32.83154,12.83154,33,12.62402,33H10c-0.55225,0-1,0.44775-1,1s0.44775,1,1,1h1v1
		c0,0.55225,0.44775,1,1,1s1-0.44775,1-1v-1.03802c1.13092-0.1817,2-1.15662,2-2.33795c0-1.05713-0.68018-1.97217-1.69336-2.27637
		l-2.03857-0.61084C11.10791,29.68848,11,29.54346,11,29.37598C11,29.16846,11.16846,29,11.37598,29z"/>
	<path d="M14,19h11c0.55225,0,1-0.44775,1-1s-0.44775-1-1-1H14c-0.55225,0-1,0.44775-1,1S13.44775,19,14,19z"/>
	<path d="M14,23h8c0.55225,0,1-0.44775,1-1s-0.44775-1-1-1h-8c-0.55225,0-1,0.44775-1,1S13.44775,23,14,23z"/>
	<path d="M38,35h-8c-0.55225,0-1,0.44775-1,1s0.44775,1,1,1h8c0.55225,0,1-0.44775,1-1S38.55225,35,38,35z"/>
	<path d="M38,31h-4c-0.55225,0-1,0.44775-1,1s0.44775,1,1,1h4c0.55225,0,1-0.44775,1-1S38.55225,31,38,31z"/>
	<circle cx="10" cy="18" r="1"/>
	<circle cx="10" cy="22" r="1"/>
	<path d="M38,17h-3c-0.55225,0-1,0.44775-1,1s0.44775,1,1,1h0.58594l-2.3006,2.3006C32.89423,21.11346,32.46173,21,32,21
		c-1.6543,0-3,1.3457-3,3c0,0.46173,0.11346,0.89423,0.3006,1.28534l-3.01526,3.01526C25.89423,28.11346,25.46173,28,25,28
		c-1.30194,0-2.40161,0.8385-2.81573,2H18c-0.55225,0-1,0.44775-1,1s0.44775,1,1,1h4.18433c0.41412,1.1615,1.51373,2,2.81567,2
		c1.6543,0,3-1.3457,3-3c0-0.46173-0.11346-0.89423-0.3006-1.28534l3.01526-3.01526C31.10577,26.88654,31.53827,27,32,27
		c1.6543,0,3-1.3457,3-3c0-0.46173-0.11346-0.89423-0.3006-1.28534L37,20.41406V21c0,0.55225,0.44775,1,1,1s1-0.44775,1-1v-3
		C39,17.44775,38.55225,17,38,17z M25,32c-0.55127,0-1-0.44873-1-1s0.44873-1,1-1s1,0.44873,1,1S25.55127,32,25,32z M32,25
		c-0.55127,0-1-0.44873-1-1s0.44873-1,1-1s1,0.44873,1,1S32.55127,25,32,25z"/>
</g>
</svg>
