<?xml version="1.0" encoding="utf-8"?>
<!-- Generator: Adobe Illustrator 27.9.0, SVG Export Plug-In . SVG Version: 6.00 Build 0)  -->
<svg version="1.1" id="Outline" fill="#1B6D7E" xmlns="http://www.w3.org/2000/svg" xmlns:xlink="http://www.w3.org/1999/xlink" x="0px" y="0px"
	 viewBox="0 0 48 48" enable-background="new 0 0 48 48" xml:space="preserve">
<g>
	<path d="M42,8H6C5.45001,8,5,8.45001,5,9v24c0,0.54999,0.45001,1,1,1h12.21997l-1,4H16c-0.54999,0-1,0.45001-1,1s0.45001,1,1,1h16
		c0.54999,0,1-0.45001,1-1s-0.45001-1-1-1h-1.21997l-1-4H42c0.54999,0,1-0.45001,1-1V9C43,8.45001,42.54999,8,42,8z M19.28003,38
		l1-4h7.43994l1,4H19.28003z M41,32H7v-2h34V32z M41,28H7V10h34V28z"/>
	<path d="M10,26h7c0.23877,0,0.46973-0.08496,0.65088-0.24121l1.74719-1.49719C20.62994,25.34039,22.23767,26,24,26
		c3.85986,0,7-3.14014,7-7c0-1.37756-0.40546-2.65967-1.0954-3.7439L31.37012,14H38c0.55225,0,1-0.44775,1-1s-0.44775-1-1-1h-7
		c-0.23877,0-0.46973,0.08545-0.65088,0.24072l-1.74731,1.49762C27.36993,12.65961,25.76227,12,24,12c-3.85986,0-7,3.14014-7,7
		c0,1.37756,0.40546,2.65967,1.0954,3.7439L16.62988,24H10c-0.55225,0-1,0.44775-1,1C9,25.55273,9.44775,26,10,26z M25,23.89893
		v-3.16766l2.72437,1.57172C27.01898,23.09753,26.07947,23.67889,25,23.89893z M29,19c0,0.55176-0.11133,1.07349-0.27716,1.57025
		L25,18.42255v-4.32147C27.2793,14.56573,29,16.58557,29,19z M23,14.10107v9.79785c-2.2793-0.46466-4-2.4845-4-4.89893
		S20.7207,14.56573,23,14.10107z"/>
	<path d="M10,22h4c0.55225,0,1-0.44775,1-1s-0.44775-1-1-1h-4c-0.55225,0-1,0.44775-1,1S9.44775,22,10,22z"/>
	<path d="M10,18h4c0.55225,0,1-0.44775,1-1s-0.44775-1-1-1h-4c-0.55225,0-1,0.44775-1,1S9.44775,18,10,18z"/>
	<path d="M10,14h4c0.55225,0,1-0.44775,1-1s-0.44775-1-1-1h-4c-0.55225,0-1,0.44775-1,1S9.44775,14,10,14z"/>
	<path d="M38,16h-4c-0.55225,0-1,0.44775-1,1s0.44775,1,1,1h4c0.55225,0,1-0.44775,1-1S38.55225,16,38,16z"/>
	<path d="M38,20h-4c-0.55225,0-1,0.44775-1,1s0.44775,1,1,1h4c0.55225,0,1-0.44775,1-1S38.55225,20,38,20z"/>
</g>
</svg>
