<?xml version="1.0" encoding="utf-8"?>
<!-- Generator: Adobe Illustrator 25.4.1, SVG Export Plug-In . SVG Version: 6.00 Build 0)  -->
<svg version="1.0" id="Layer_1" xmlns="http://www.w3.org/2000/svg" xmlns:xlink="http://www.w3.org/1999/xlink" x="0px" y="0px"
	 viewBox="0 0 64 64" style="enable-background:new 0 0 64 64;" xml:space="preserve">
<style type="text/css">
	.st0{fill:none;stroke:#8ec63f;stroke-width:2;stroke-linecap:round;stroke-linejoin:round;stroke-miterlimit:10;}
</style>
<g>
	<path class="st0" d="M18.41,57.34c0-7.54,6.11-13.66,13.66-13.66h0c7.54,0,13.66,6.11,13.66,13.66H18.41z"/>
	<circle class="st0" cx="32.06" cy="35.81" r="7.87"/>
	<path class="st0" d="M21.71,26.37c2.69-2.38,6.22-3.83,10.09-3.83l0,0c3.85,0,7.37,1.43,10.05,3.79"/>
	<ellipse transform="matrix(0.9362 -0.3515 0.3515 0.9362 -3.1039 12.1117)" class="st0" cx="31.8" cy="14.6" rx="7.94" ry="7.94"/>
	<path class="st0" d="M41.67,43.95c2.01-1.82,4.68-2.92,7.6-2.92l0,0c6.27,0,11.35,5.08,11.35,11.35H48.06"/>
	<path class="st0" d="M55.81,34.49c0,3.61-2.93,6.54-6.54,6.54c-3.61,0-6.54-2.93-6.54-6.54s2.93-6.54,6.54-6.54
		C52.88,27.95,55.81,30.88,55.81,34.49z"/>
	<path class="st0" d="M22.33,43.95c-2.01-1.82-4.68-2.92-7.6-2.92l0,0c-6.27,0-11.35,5.08-11.35,11.35h12.56"/>
	<path class="st0" d="M8.19,34.49c0,3.61,2.93,6.54,6.54,6.54c3.61,0,6.54-2.93,6.54-6.54s-2.93-6.54-6.54-6.54
		C11.12,27.95,8.19,30.88,8.19,34.49z"/>
</g>
</svg>
