<?xml version="1.0" encoding="utf-8"?>
<!-- Generator: Adobe Illustrator 25.4.1, SVG Export Plug-In . SVG Version: 6.00 Build 0)  -->
<svg version="1.0" id="Layer_1" xmlns="http://www.w3.org/2000/svg" xmlns:xlink="http://www.w3.org/1999/xlink" x="0px" y="0px"
	 viewBox="0 0 64 64" style="enable-background:new 0 0 64 64;" xml:space="preserve">
<style type="text/css">
	.st0{fill:none;stroke:#1B6D7E;stroke-width:2;stroke-linecap:round;stroke-linejoin:round;stroke-miterlimit:10;}
</style>
<g>
	<g>
		<g>
			<path class="st0" d="M38.38,27.27V38.6c0,1.22,0.99,2.21,2.21,2.21l0,0c1.22,0,2.21-0.99,2.21-2.21V25.46
				c0-1.11-0.34-2.19-0.97-3.1l-0.12-0.18c-1.01-1.46-2.68-2.33-4.46-2.33H27.02c-1.78,0-3.44,0.87-4.46,2.33l-0.12,0.18
				c-0.63,0.91-0.97,1.99-0.97,3.1V38.6c0,1.22,0.99,2.21,2.21,2.21l0,0c1.22,0,2.21-0.99,2.21-2.21V27.27"/>
			<line class="st0" x1="25.88" y1="57.7" x2="25.88" y2="34.99"/>
			<line class="st0" x1="38.38" y1="34.99" x2="38.38" y2="57.7"/>
			<path class="st0" d="M38.89,13.08c0,3.74-3.03,6.77-6.77,6.77s-6.77-3.03-6.77-6.77c0-3.74,3.03-6.77,6.77-6.77
				S38.89,9.35,38.89,13.08z"/>
		</g>
		<line class="st0" x1="32.13" y1="57.7" x2="32.13" y2="43.52"/>
	</g>
	<g>
		<path class="st0" d="M56.6,23.6v9.35c0,1.01,0.81,1.82,1.82,1.82l0,0c1.01,0,1.82-0.82,1.82-1.82V22.1c0-0.91-0.28-1.81-0.8-2.56
			l-0.1-0.15c-0.84-1.2-2.21-1.92-3.68-1.92h-8.44c-1.1,0-2.15,0.4-2.96,1.11"/>
		<line class="st0" x1="56.6" y1="29.97" x2="56.6" y2="51.18"/>
		<path class="st0" d="M57.02,11.89c0,3.08-2.5,5.58-5.58,5.58c-3.08,0-5.58-2.5-5.58-5.58c0-3.08,2.5-5.58,5.58-5.58
			C54.52,6.3,57.02,8.8,57.02,11.89z"/>
		<line class="st0" x1="51.44" y1="51.18" x2="51.44" y2="37.01"/>
	</g>
	<g>
		<path class="st0" d="M7.4,23.6v9.35c0,1.01-0.82,1.82-1.82,1.82l0,0c-1.01,0-1.82-0.82-1.82-1.82V22.1c0-0.91,0.28-1.81,0.8-2.56
			l0.1-0.15c0.84-1.2,2.21-1.92,3.68-1.92h8.44c1.1,0,2.15,0.4,2.96,1.11"/>
		<line class="st0" x1="7.4" y1="29.97" x2="7.4" y2="51.18"/>
		<path class="st0" d="M6.98,11.89c0,3.08,2.5,5.58,5.58,5.58c3.08,0,5.58-2.5,5.58-5.58c0-3.08-2.5-5.58-5.58-5.58
			C9.48,6.3,6.98,8.8,6.98,11.89z"/>
		<line class="st0" x1="12.56" y1="51.18" x2="12.56" y2="37.01"/>
	</g>
</g>
</svg>
