<svg id="Capa_1" fill="#C4DA55" enable-background="new 0 0 512 512" height="512" viewBox="0 0 512 512" width="512" xmlns="http://www.w3.org/2000/svg"><g><path d="m484.349 192.454h-6.563c-4.747-16.291-11.32-31.999-19.611-46.869l4.627-4.582c5.231-5.18 8.112-12.069 8.112-19.4s-2.881-14.221-8.111-19.4l-51.548-51.049c-10.774-10.67-28.305-10.67-39.079 0l-4.64 4.596c-15.057-8.248-30.965-14.783-47.465-19.496v-6.446c0-15.118-12.404-27.418-27.65-27.418h-72.84c-15.247 0-27.65 12.3-27.65 27.418v6.446c-16.5 4.714-32.409 11.248-47.465 19.496l-4.64-4.594c-10.774-10.673-28.305-10.671-39.08-.002l-51.549 51.048c-5.23 5.181-8.111 12.071-8.111 19.402 0 7.33 2.881 14.22 8.111 19.399l4.627 4.582c-8.291 14.87-14.864 30.578-19.611 46.869h-6.563c-15.246 0-27.65 12.3-27.65 27.419v72.254c0 15.118 12.404 27.418 27.651 27.418h6.563c4.747 16.291 11.32 32 19.611 46.869l-4.627 4.582c-5.231 5.179-8.112 12.068-8.112 19.399s2.88 14.222 8.111 19.402l51.548 51.048c10.774 10.67 28.305 10.67 39.079 0l4.64-4.596c15.056 8.249 30.965 14.783 47.465 19.497v6.446c0 15.118 12.404 27.418 27.65 27.418h72.84c15.247 0 27.65-12.3 27.65-27.418v-6.446c16.5-4.714 32.409-11.248 47.465-19.497l4.64 4.596c10.774 10.67 28.305 10.67 39.079 0l51.548-51.048c5.231-5.181 8.112-12.071 8.111-19.402 0-7.331-2.881-14.221-8.112-19.399l-4.626-4.582c8.292-14.87 14.864-30.578 19.611-46.869h6.563c15.247 0 27.651-12.3 27.651-27.418v-72.254c.001-15.119-12.403-27.419-27.65-27.419zm7.651 99.673c0 4.09-3.432 7.418-7.651 7.418h-14.199c-4.574 0-8.565 3.104-9.692 7.537-4.989 19.627-12.852 38.411-23.372 55.829-2.387 3.953-1.757 9.026 1.523 12.275l10.12 10.021c1.409 1.396 2.184 3.238 2.184 5.19.001 1.952-.775 3.795-2.185 5.19l-51.548 51.048c-3.014 2.986-7.918 2.984-10.932 0l-10.032-9.936c-3.231-3.201-8.218-3.817-12.133-1.498-17.604 10.427-36.591 18.222-56.432 23.166-4.455 1.11-7.582 5.111-7.582 9.703v14.123c0 4.09-3.432 7.418-7.65 7.418h-72.84c-4.218 0-7.65-3.328-7.65-7.418v-14.123c0-4.592-3.126-8.593-7.582-9.703-19.842-4.945-38.828-12.739-56.432-23.166-1.584-.94-3.344-1.397-5.093-1.397-2.57 0-5.116.989-7.04 2.895l-10.032 9.936c-3.014 2.984-7.919 2.984-10.933 0l-51.547-51.048c-1.409-1.395-2.185-3.238-2.185-5.19 0-1.951.776-3.794 2.185-5.19l10.12-10.021c3.281-3.249 3.911-8.322 1.524-12.275-10.52-17.418-18.383-36.202-23.372-55.829-1.127-4.434-5.118-7.537-9.692-7.537h-14.199c-4.219 0-7.651-3.328-7.651-7.418v-72.254c0-4.091 3.432-7.419 7.651-7.419h14.199c4.574 0 8.565-3.104 9.692-7.536 4.989-19.628 12.852-38.411 23.372-55.829 2.387-3.953 1.757-9.026-1.524-12.275l-10.12-10.022c-1.409-1.395-2.185-3.237-2.185-5.189s.776-3.796 2.185-5.19l51.548-51.048c3.014-2.984 7.919-2.984 10.933.001l10.032 9.935c3.232 3.201 8.218 3.818 12.133 1.499 17.604-10.427 36.59-18.222 56.432-23.167 4.455-1.11 7.582-5.112 7.582-9.703v-14.123c0-4.09 3.432-7.418 7.65-7.418h72.84c4.218 0 7.65 3.328 7.65 7.418v14.122c0 4.591 3.126 8.593 7.582 9.703 19.84 4.945 38.827 12.74 56.432 23.167 3.914 2.318 8.9 1.701 12.133-1.499l10.032-9.935c3.014-2.984 7.919-2.984 10.933 0l51.548 51.049c1.409 1.395 2.185 3.238 2.185 5.189s-.776 3.795-2.185 5.189l-10.12 10.022c-3.281 3.249-3.911 8.322-1.523 12.275 10.52 17.418 18.383 36.201 23.372 55.829 1.127 4.433 5.118 7.536 9.692 7.536h14.199c4.219 0 7.651 3.328 7.651 7.419v72.254z"/><path d="m256 95.386c-89.377 0-162.09 72.051-162.09 160.614s72.713 160.614 162.09 160.614 162.09-72.05 162.09-160.614-72.713-160.614-162.09-160.614zm0 301.228c-78.349 0-142.09-63.079-142.09-140.614s63.741-140.614 142.09-140.614 142.09 63.079 142.09 140.614-63.741 140.614-142.09 140.614z"/><path d="m256 175.375c-69.92 0-118.351 72.043-120.378 75.11-2.211 3.344-2.211 7.686 0 11.029 2.027 3.067 50.458 75.11 120.378 75.11s118.351-72.043 120.378-75.11c2.211-3.344 2.211-7.685 0-11.029-2.027-3.067-50.458-75.11-120.378-75.11zm0 141.25c-48.835 0-87.482-44.732-99.669-60.625 12.192-15.9 50.837-60.625 99.669-60.625s87.476 44.725 99.668 60.625c-12.192 15.9-50.836 60.625-99.668 60.625z"/><path d="m256 211.909c-24.312 0-44.091 19.779-44.091 44.091s19.779 44.091 44.091 44.091 44.091-19.779 44.091-44.091-19.78-44.091-44.091-44.091zm0 68.182c-13.284 0-24.091-10.807-24.091-24.091s10.807-24.091 24.091-24.091 24.091 10.807 24.091 24.091-10.807 24.091-24.091 24.091z"/></g></svg>