<svg id="Capa_1" enable-background="new 0 0 512 512" fill="#1B6D7E" height="512" viewBox="0 0 512 512" width="512" xmlns="http://www.w3.org/2000/svg"><g><path d="m144.4 211.335h82.463l22.066 22.066c1.953 1.952 4.512 2.929 7.071 2.929s5.119-.977 7.071-2.929l22.066-22.066h82.463c5.523 0 10-4.478 10-10v-182.809c0-5.522-4.477-10-10-10h-223.2c-5.523 0-10 4.478-10 10v182.809c0 5.522 4.477 10 10 10zm10-182.809h203.201v162.809h-76.605c-2.652 0-5.196 1.054-7.071 2.929l-17.925 17.923-17.924-17.924c-1.876-1.875-4.419-2.929-7.071-2.929h-76.605z"/><path d="m244.716 169.358c0 5.523 4.477 10 10 10 5.352 0 9.721-4.204 9.987-9.489 16.187-2.467 27.592-12.912 29.404-27.244 2.062-16.314-8.624-31.974-25.987-38.079-1.183-.416-2.317-.818-3.404-1.206v-25.579c2.371.959 4.04 2.273 4.934 3.539 3.182 4.512 9.422 5.59 13.936 2.407 4.513-3.184 5.591-9.423 2.407-13.937-4.172-5.914-11.606-10.889-21.276-12.705v-.809c0-5.523-4.477-10-10-10s-10 4.477-10 10v1.525c-1.06.253-2.131.541-3.215.866-11.528 3.454-20.224 14.593-21.148 27.086-.913 12.363 5.68 23.093 17.635 28.701 1.514.71 3.817 1.67 6.728 2.809v31.194c-3.713-1.309-7.046-3.298-9.294-6.074-3.476-4.292-9.773-4.953-14.064-1.479-4.292 3.476-4.954 9.772-1.479 14.064 6.387 7.887 15.685 12.228 24.837 14.183v.227zm29.548-29.241c-.575 4.552-3.981 7.829-9.549 9.358v-24.67c7.38 3.835 10.177 10.349 9.549 15.312zm-33.965-52.909c.238-3.224 1.999-6.318 4.417-8.11v16.269c-3.185-2.012-4.669-4.749-4.417-8.159z"/><path d="m509.716 279.149-42.063-51.021c-1.689-2.049-4.124-3.342-6.767-3.594-2.638-.253-5.278.558-7.324 2.251l-18.501 15.311-24.754-15.389c-25.144-15.63-57.378-13.457-80.215 5.409l-54.768 45.249c-9.35 7.728-10.712 21.604-3.037 30.934 4.037 4.907 9.126 8.64 14.85 10.976l-38.801 32.056-23.468-19.388c5.724-2.336 10.813-6.068 14.85-10.976 7.675-9.33 6.313-23.206-3.039-30.935l-54.768-45.248c-22.836-18.865-55.072-21.038-80.215-5.408l-24.756 15.387-18.501-15.31c-2.046-1.693-4.682-2.502-7.324-2.251-2.644.252-5.078 1.545-6.767 3.594l-42.064 51.022c-3.508 4.256-2.909 10.548 1.339 14.065l15.709 13.003-4.265 29.133c-3.479 23.77 5.852 48.034 24.354 63.324l103.017 85.132c5.479 4.526 12.461 7 19.55 7 1.061 0 2.125-.056 3.186-.167 8.042-.852 15.19-4.757 20.128-10.997 3.027-3.826 4.959-8.202 5.837-12.73 2.663.432 5.389.515 8.1.229 8.042-.851 15.191-4.756 20.13-10.996 2.746-3.47 4.59-7.392 5.564-11.47 9.474 2.334 19.765.129 27.224-6.577 3.746-3.367 6.518-7.6 8.134-12.274 7.42 6.398 17.491 8.47 26.776 6.183.975 4.078 2.819 7.999 5.565 11.47 4.939 6.24 12.087 10.145 20.129 10.995 2.712.288 5.438.202 8.1-.23.878 4.528 2.809 8.904 5.836 12.73 4.938 6.241 12.087 10.147 20.129 10.997 1.061.112 2.124.168 3.185.168 7.089 0 14.073-2.474 19.551-7.001l103.017-85.132c18.501-15.291 27.833-39.555 24.353-63.323l-4.265-29.134 15.708-13.003c4.25-3.516 4.849-9.808 1.341-14.064zm-267.63 118.692c-.159-.131-.32-.256-.484-.375l-66.261-54.778c-4.256-3.52-10.559-2.921-14.079 1.335-3.518 4.257-2.921 10.561 1.336 14.079l68.975 57.022c.135.112.272.219.412.322l6.074 5.038c2.392 1.978 3.801 4.908 3.867 8.042.035 1.667-.327 4.841-3.138 7.367-3.612 3.246-9.374 3.181-13.405-.149l-3.527-2.914s-.001 0-.001-.001l-71.825-59.377c-4.255-3.519-10.559-2.922-14.079 1.335-3.519 4.257-2.921 10.561 1.336 14.079l64.783 53.556c.03.026.06.051.091.077 4.176 3.451 4.86 9.688 1.525 13.903-1.574 1.988-3.899 3.237-6.549 3.518-2.836.302-5.712-.56-7.877-2.35l-8.349-6.926c-.025-.021-.051-.043-.077-.063-.155-.128-.312-.25-.472-.367l-55.641-46.001c-4.256-3.52-10.56-2.922-14.079 1.335s-2.921 10.561 1.335 14.079l56.563 46.762c3.774 3.515 4.291 9.451 1.079 13.51-1.573 1.988-3.899 3.237-6.548 3.518-2.839.302-5.713-.56-7.892-2.36l-103.017-85.131c-13.148-10.866-19.779-28.113-17.306-45.011l5.079-34.698c.506-3.455-.828-6.925-3.518-9.151l-12.352-10.226 29.342-35.591 16.326 13.511c3.313 2.74 8.004 3.056 11.655.789l30.866-19.186c17.839-11.091 40.712-9.546 56.918 3.841l54.766 45.246c.869.718 1.018 1.978.334 2.81-3.023 3.675-7.299 5.949-12.04 6.406-4.782.452-9.457-.978-13.174-4.046l-.003-.003c0-.001 0-.001 0-.001-4.257-3.517-10.561-2.917-14.078 1.341-3.518 4.258-2.917 10.561 1.34 14.078l67.993 56.173c2.186 1.807 3.581 4.484 3.829 7.347.231 2.674-.551 5.211-2.205 7.144-3.479 4.065-9.69 4.578-13.848 1.142zm229.979-94.293 5.079 34.699c2.474 16.897-4.158 34.145-17.305 45.01l-103.017 85.132c-2.179 1.8-5.058 2.66-7.892 2.361-2.65-.28-4.976-1.53-6.549-3.518-3.213-4.061-2.695-9.998 1.082-13.513l56.559-46.758c4.257-3.518 4.855-9.822 1.335-14.079-3.519-4.256-9.823-4.855-14.079-1.335l-55.65 46.007c-.157.115-.312.235-.464.36-.026.021-.051.042-.077.063l-8.335 6.913c-2.179 1.801-5.055 2.659-7.892 2.361-2.65-.28-4.976-1.529-6.549-3.517-3.332-4.211-2.653-10.439 1.512-13.893l.013-.011c.04-.033.079-.067.119-.101l64.756-53.533c4.257-3.518 4.854-9.822 1.336-14.079-3.52-4.257-9.822-4.854-14.079-1.335l-71.825 59.377c-.011.009-.022.019-.034.028l-3.494 2.888c-4.031 3.331-9.794 3.396-13.405.149-2.81-2.526-3.172-5.7-3.137-7.367.065-3.134 1.475-6.064 3.881-8.054l6.053-5.021c.141-.105.281-.214.418-.327l68.975-57.023c4.257-3.518 4.854-9.822 1.336-14.079-3.519-4.256-9.823-4.855-14.079-1.335l-60.362 49.903c-1.864-5.087-5.049-9.659-9.251-13.131l-3.013-2.489 90.471-74.767 19.038 23.093c3.513 4.261 9.815 4.869 14.077 1.355 4.261-3.513 4.868-9.816 1.354-14.077l-25.408-30.819c-1.689-2.048-4.122-3.341-6.765-3.594-2.642-.251-5.276.557-7.323 2.248l-36.864 30.478c-3.662 2.885-8.206 4.22-12.844 3.78-4.741-.457-9.018-2.732-12.04-6.406-.685-.832-.535-2.093.332-2.81l54.767-45.247c16.206-13.387 39.08-14.932 56.919-3.842l30.865 19.187c3.651 2.269 8.343 1.952 11.655-.789l16.327-13.511 29.341 35.59-12.353 10.226c-2.688 2.227-4.021 5.696-3.515 9.152z"/></g></svg>