<svg id="Capa_1" fill="#4ECECC" enable-background="new 0 0 512 512" height="512" viewBox="0 0 512 512" width="512" xmlns="http://www.w3.org/2000/svg"><g><path d="m165.514 247.638c-.836-.296-1.645-.585-2.428-.866v-21.078c1.22.673 2.106 1.447 2.625 2.19 3.168 4.524 9.402 5.625 13.927 2.458s5.626-9.401 2.459-13.927c-3.775-5.394-10.406-9.958-19.011-11.78-.003-5.52-4.479-9.994-10-9.994-5.523 0-10 4.478-10 10v.679c-.731.187-1.469.393-2.212.618-10.75 3.247-18.865 13.684-19.734 25.382-.863 11.619 5.278 21.703 16.427 26.975 1.275.603 3.159 1.4 5.52 2.339v26.31c-2.669-1.123-4.996-2.666-6.59-4.65-3.458-4.306-9.753-4.993-14.059-1.533-4.306 3.458-4.992 9.753-1.534 14.059 5.735 7.139 13.994 11.16 22.196 13.056.27 5.282 4.638 9.482 9.987 9.482 5.101 0 9.31-3.82 9.923-8.755 14.603-2.513 24.866-12.179 26.545-25.364 1.941-15.256-7.944-29.895-24.041-35.601zm-24.431-14.835c.137-1.84.893-3.661 2.002-5.092v10.491c-1.503-1.46-2.162-3.246-2.002-5.399zm28.63 47.91c-.429 3.369-2.773 5.896-6.628 7.298v-19.457c5.163 3.329 7.12 8.302 6.628 12.159z"/><path d="m382.685 229.324c1.779-3.12 1.749-6.955-.08-10.046l-61.986-104.749c-1.801-3.042-5.072-4.907-8.607-4.907-3.534 0-6.807 1.865-8.606 4.907l-27.475 46.43c-29.149-37.539-73.741-59.594-121.688-59.594-85.05 0-154.243 69.369-154.243 154.635s69.193 154.635 154.243 154.635c45.994 0 89.086-20.587 118.105-55.171v36.914c0 5.522 4.477 10 10 10h59.329c5.522 0 10-4.478 10-10v-158.007h22.321c3.592 0 6.908-1.927 8.687-5.047zm-111.012 91.968c-23.698 42.772-68.694 69.343-117.43 69.343-74.022 0-134.243-60.397-134.243-134.635s60.221-134.635 134.243-134.635c44.392 0 85.485 21.735 110.609 58.317l-14.871 25.13c-18.295-34.249-54.347-57.599-95.737-57.599-59.837 0-108.519 48.801-108.519 108.786s48.681 108.786 108.519 108.786 108.518-48.8 108.518-108.785c0-7.404-.742-14.637-2.155-21.629h11.741v85.818c-.347.555-.64 1.041-.675 1.103zm-28.911-65.292c0 48.957-39.71 88.786-88.518 88.786-48.809 0-88.519-39.829-88.519-88.786s39.71-88.786 88.519-88.786c48.808 0 88.518 39.829 88.518 88.786zm98.915-41.629c-5.522 0-10 4.477-10 10v158.007h-39.329v-158.007c0-5.523-4.478-10-10-10h-14.784l44.448-75.113 44.449 75.113z"/><path d="m510.686 282.676c-1.778-3.12-5.095-5.047-8.686-5.047h-22.321v-158.007c0-5.522-4.478-10-10-10h-59.329c-5.523 0-10 4.478-10 10v158.007h-22.321c-3.592 0-6.908 1.927-8.686 5.047-1.779 3.12-1.749 6.955.08 10.046l61.985 104.749c1.8 3.042 5.072 4.907 8.607 4.907s6.806-1.865 8.606-4.907l61.986-104.749c1.828-3.091 1.859-6.926.079-10.046zm-70.672 90.066-44.448-75.113h14.784c5.522 0 10-4.477 10-10v-158.007h39.329v158.007c0 5.523 4.478 10 10 10h14.784z"/></g></svg>