<?xml version="1.0" encoding="utf-8"?>
<!-- Generator: Adobe Illustrator 27.9.0, SVG Export Plug-In . SVG Version: 6.00 Build 0)  -->
<svg fill="#C4DA55" version="1.1" id="Outline" xmlns="http://www.w3.org/2000/svg" xmlns:xlink="http://www.w3.org/1999/xlink" x="0px" y="0px"
	 viewBox="0 0 48 48" enable-background="new 0 0 48 48" xml:space="preserve">
<g>
	<path d="M42,7H6C5.44775,7,5,7.44775,5,8v32c0,0.55225,0.44775,1,1,1h36c0.55273,0,1-0.44775,1-1V8C43,7.44775,42.55273,7,42,7z
		 M41,13H22.72089l-1.33337-4H41V13z M18.72089,13l-1.33337-4h1.8916l1.33337,4H18.72089z M15.27911,9l1.33337,4H7V9H15.27911z
		 M7,39V15h34v24H7z"/>
	<path d="M18.37598,25H21c0.55225,0,1-0.44775,1-1s-0.44775-1-1-1h-1v-1c0-0.55225-0.44775-1-1-1s-1,0.44775-1,1v1.03802
		c-1.13092,0.1817-2,1.15662-2,2.33795c0,1.05713,0.68018,1.97217,1.69336,2.27637l2.03857,0.61084
		C19.89209,28.31152,20,28.45654,20,28.62402C20,28.83154,19.83154,29,19.62402,29H17c-0.55225,0-1,0.44775-1,1s0.44775,1,1,1h1v1
		c0,0.55225,0.44775,1,1,1s1-0.44775,1-1v-1.03802c1.13092-0.1817,2-1.15662,2-2.33795c0-1.05713-0.68018-1.97217-1.69336-2.27637
		l-2.03857-0.61084C18.10791,25.68848,18,25.54346,18,25.37598C18,25.16846,18.16846,25,18.37598,25z"/>
	<path d="M29.41406,21h3.77026c0.41412,1.1615,1.51373,2,2.81567,2c1.6543,0,3-1.3457,3-3s-1.3457-3-3-3
		c-1.30194,0-2.40161,0.8385-2.81573,2H29c-0.26562,0-0.51953,0.10547-0.70703,0.29297l-1.48114,1.48083
		C24.97797,18.4776,22.1604,17,19,17c-5.51416,0-10,4.48584-10,10s4.48584,10,10,10c3.1604,0,5.97797-1.4776,7.81183-3.7738
		l1.48114,1.48083C28.48047,34.89453,28.73438,35,29,35h4.18433c0.41412,1.1615,1.51373,2,2.81567,2c1.6543,0,3-1.3457,3-3
		s-1.3457-3-3-3c-1.30194,0-2.40161,0.8385-2.81573,2h-3.7702l-1.49738-1.49707c0.54413-1.073,0.9079-2.25201,1.03265-3.50293
		h4.23499c0.41412,1.1615,1.51373,2,2.81567,2c1.6543,0,3-1.3457,3-3s-1.3457-3-3-3c-1.30194,0-2.40161,0.8385-2.81573,2h-4.23492
		c-0.12476-1.25092-0.48853-2.42993-1.03265-3.50293L29.41406,21z M36,19c0.55176,0,1,0.44873,1,1s-0.44824,1-1,1s-1-0.44873-1-1
		S35.44824,19,36,19z M36,33c0.55176,0,1,0.44873,1,1s-0.44824,1-1,1s-1-0.44873-1-1S35.44824,33,36,33z M19,35
		c-4.41113,0-8-3.58887-8-8s3.58887-8,8-8s8,3.58887,8,8S23.41113,35,19,35z M36,26c0.55176,0,1,0.44873,1,1s-0.44824,1-1,1
		s-1-0.44873-1-1S35.44824,26,36,26z"/>
	<circle cx="24.5" cy="27" r="1"/>
	<circle cx="13.5" cy="27" r="1"/>
</g>
</svg>
